<svg width="13" height="16" viewBox="0 0 13 16" fill="none" xmlns="http://www.w3.org/2000/svg">
<path d="M6.7507 0.5C7.4407 0.5 7.99944 1.05913 7.99944 1.74875C7.99944 2.346 7.99944 9.33 7.99944 11.1925L10.8639 8.35771C11.3516 7.87499 12.1377 7.87704 12.623 8.36229C13.1089 8.84819 13.1102 9.63559 12.6259 10.1231L7.64818 15.1338C7.40443 15.3788 7.07694 15.5 6.74944 15.5C6.42319 15.5 6.09693 15.3775 5.85318 15.1338L0.875501 10.1231C0.391203 9.63559 0.392503 8.84819 0.878407 8.36229C1.36366 7.87704 2.14977 7.87499 2.63754 8.35771L5.50196 11.1925C5.50196 9.33 5.50196 2.346 5.50196 1.74875C5.50196 1.05913 6.0607 0.5 6.7507 0.5Z" fill="#FFA620"/>
</svg>
