<svg width="24" height="25" viewBox="0 0 24 25" fill="none" xmlns="http://www.w3.org/2000/svg">
<path d="M7 18.5C5.9 18.5 5.01 19.4 5.01 20.5C5.01 21.6 5.9 22.5 7 22.5C8.1 22.5 9 21.6 9 20.5C9 19.4 8.1 18.5 7 18.5ZM1 3.5C1 4.05 1.45 4.5 2 4.5H3L6.6 12.09L5.25 14.53C4.52 15.87 5.48 17.5 7 17.5H18C18.55 17.5 19 17.05 19 16.5C19 15.95 18.55 15.5 18 15.5H7L8.1 13.5H15.55C16.3 13.5 16.96 13.09 17.3 12.47L20.88 5.98C21.25 5.32 20.77 4.5 20.01 4.5H5.21L4.54 3.07C4.38 2.72 4.02 2.5 3.64 2.5H2C1.45 2.5 1 2.95 1 3.5ZM17 18.5C15.9 18.5 15.01 19.4 15.01 20.5C15.01 21.6 15.9 22.5 17 22.5C18.1 22.5 19 21.6 19 20.5C19 19.4 18.1 18.5 17 18.5Z" fill="#2E5CFF"/>
</svg>
