<svg width="23" height="24" viewBox="0 0 23 24" fill="none" xmlns="http://www.w3.org/2000/svg">
<path d="M12.0372 10.7187V24L22.4363 19.2075C22.5849 19.1392 22.7108 19.0294 22.799 18.8917C22.8872 18.7539 22.934 18.5935 22.9339 18.4299V5.74985V5.70067L12.0372 10.7187Z" fill="#394055"/>
<path d="M11.8248 0.0783783C11.5979 -0.0261261 11.3364 -0.0261261 11.1095 0.0783783L0.824341 4.82176L11.4673 9.72853L22.1103 4.82176L11.8248 0.0783783Z" fill="#394055"/>
<path d="M0.000123244 5.74988V18.4299C-5.75492e-05 18.5935 0.0467702 18.7539 0.135005 18.8917C0.223235 19.0295 0.349077 19.1392 0.497697 19.2076L10.8968 24V10.7187L0.0103062 5.70086C0.00506293 5.71623 0 5.73178 0 5.75004L0.000123244 5.74988Z" fill="#394055"/>
</svg>
