<svg width="36" height="36" viewBox="0 0 36 36" fill="none" xmlns="http://www.w3.org/2000/svg">
<path d="M18.2 6C16.9293 6 15.9 7.02925 15.9 8.3H10.15C9.5152 8.3 9 8.8152 9 9.45C9 10.0848 9.5152 10.6 10.15 10.6V24.4C10.15 26.9185 12.2258 29 14.75 29H21.65C24.1743 29 26.25 26.9242 26.25 24.4V10.6C26.8848 10.6 27.4 10.0848 27.4 9.45C27.4 8.8152 26.8848 8.3 26.25 8.3H20.5C20.5 7.02925 19.4708 6 18.2 6ZM12.45 10.6H23.95V24.4C23.95 25.6616 22.9265 26.7 21.6857 26.7L14.75 26.6643C13.4827 26.6643 12.45 25.6409 12.45 24.4V10.6ZM15.9 12.9C15.2652 12.9 14.75 13.4152 14.75 14.05V23.25C14.75 23.8848 15.2652 24.4 15.9 24.4C16.5348 24.4 17.05 23.8848 17.05 23.25V14.05C17.05 13.4152 16.5348 12.9 15.9 12.9ZM20.5 12.9C19.8652 12.9 19.35 13.4152 19.35 14.05V23.25C19.35 23.8848 19.8652 24.4 20.5 24.4C21.1348 24.4 21.65 23.8848 21.65 23.25V14.05C21.65 13.4152 21.1348 12.9 20.5 12.9Z" fill="white"/>
</svg>
