<svg width="24" height="24" viewBox="0 0 24 24" fill="none" xmlns="http://www.w3.org/2000/svg">
<path fill-rule="evenodd" clip-rule="evenodd" d="M2 4H22V20H2V4ZM6.4095 16C5.8616 16 5.38531 15.8929 4.98061 15.6787C4.57591 15.4645 4.24904 15.1727 4 14.8033L4.81251 13.7396C5.0491 14.0499 5.30748 14.2789 5.58765 14.4266C5.87406 14.5743 6.16357 14.6482 6.4562 14.6482C6.7924 14.6482 7.04767 14.5596 7.22201 14.3823C7.39634 14.205 7.4835 13.9501 7.4835 13.6177C7.4835 13.3444 7.41501 13.1376 7.27804 12.9972C7.14729 12.8569 6.92315 12.7572 6.60562 12.6981L5.92386 12.5651C5.33861 12.4469 4.91524 12.1921 4.65374 11.8006C4.39224 11.4017 4.2615 10.9178 4.2615 10.349C4.2615 9.60295 4.46696 9.02678 4.87788 8.6205C5.2888 8.20683 5.86472 8 6.60562 8C7.10994 8 7.54888 8.09234 7.92244 8.27701C8.29601 8.46168 8.59797 8.71283 8.82834 9.03047L8.03451 10.0831C7.86018 9.85411 7.65472 9.67682 7.41813 9.55125C7.18154 9.41828 6.91381 9.3518 6.61496 9.3518C5.98613 9.3518 5.67171 9.65836 5.67171 10.2715C5.67171 10.5374 5.74019 10.7368 5.87717 10.8698C6.02037 11.0028 6.25073 11.1025 6.56827 11.169L7.25002 11.313C7.77924 11.4238 8.18705 11.6602 8.47345 12.0222C8.75985 12.3841 8.90305 12.8717 8.90305 13.4848C8.90305 13.8467 8.85013 14.1828 8.74429 14.4931C8.63844 14.7959 8.47968 15.0619 8.26799 15.2909C8.0563 15.5125 7.79481 15.6861 7.4835 15.8116C7.17842 15.9372 6.82042 16 6.4095 16ZM11.9253 12.6427L11.3463 13.6066V15.867H9.94539V8.13296H11.3463V11.3684H11.421L12.1307 10.0831L13.2795 8.13296H14.8484L12.8966 11.4017L14.9418 15.867H13.3635L11.9253 12.6427ZM16.8247 13.0305V8.13296H15.4238V12.8089C15.4238 13.3407 15.4518 13.8061 15.5079 14.205C15.5701 14.6039 15.6853 14.9363 15.8534 15.2022C16.0215 15.4681 16.255 15.6676 16.5539 15.8006C16.8527 15.9335 17.2387 16 17.7119 16C18.1851 16 18.5711 15.9335 18.87 15.8006C19.1688 15.6676 19.4023 15.4681 19.5704 15.2022C19.7385 14.9363 19.8506 14.6039 19.9066 14.205C19.9689 13.8061 20 13.3407 20 12.8089V8.13296H18.5991V13.0305C18.5991 13.2742 18.5898 13.4995 18.5711 13.7064C18.5587 13.9058 18.5213 14.0757 18.459 14.2161C18.403 14.3564 18.3158 14.4672 18.1975 14.5485C18.0792 14.6223 17.9174 14.6593 17.7119 14.6593C17.5064 14.6593 17.3446 14.6223 17.2263 14.5485C17.108 14.4672 17.0177 14.3564 16.9554 14.2161C16.8994 14.0757 16.862 13.9058 16.8434 13.7064C16.8309 13.4995 16.8247 13.2742 16.8247 13.0305Z" fill="#394055"/>
</svg>
