<svg width="74" height="39" viewBox="0 0 74 39" fill="none" xmlns="http://www.w3.org/2000/svg">
<path d="M23.8203 24L23.0615 22.0381H18.9189L18.1465 24H16.4102L20.3203 14.1973H21.6943L25.5977 24H23.8203ZM19.5205 20.4727H22.4463L20.9902 16.7197L19.5205 20.4727ZM31.2373 17.1572H32.9189L29.0498 26.4062H27.375L28.6055 23.6377L25.8916 17.1572H27.5664L29.4053 21.8193L31.2373 17.1572ZM38.8047 17.1572H40.3701V24H38.8047V23.0771C38.6042 23.4007 38.3125 23.6582 37.9297 23.8496C37.5514 24.041 37.1458 24.1367 36.7129 24.1367C35.8516 24.1367 35.1702 23.861 34.6689 23.3096C34.1676 22.7536 33.917 21.9993 33.917 21.0469V17.1572H35.4688V20.8076C35.4688 21.3545 35.6169 21.7874 35.9131 22.1064C36.2093 22.4255 36.6035 22.585 37.0957 22.585C37.4375 22.585 37.7633 22.4984 38.0732 22.3252C38.3877 22.1475 38.6315 21.9128 38.8047 21.6211V17.1572ZM47.1309 14.1973H48.6895V24H47.1309V23.0771C46.9486 23.387 46.6523 23.6423 46.2422 23.8428C45.8366 24.0387 45.4059 24.1367 44.9502 24.1367C44.0296 24.1367 43.2503 23.7926 42.6123 23.1045C41.9788 22.4163 41.6621 21.571 41.6621 20.5684C41.6621 19.5749 41.9788 18.734 42.6123 18.0459C43.2503 17.3577 44.0296 17.0137 44.9502 17.0137C45.4014 17.0137 45.832 17.1139 46.2422 17.3145C46.6523 17.515 46.9486 17.7702 47.1309 18.0801V14.1973ZM45.2715 22.6533C45.6543 22.6533 46.0166 22.5576 46.3584 22.3662C46.7048 22.1748 46.9622 21.931 47.1309 21.6348V19.5361C46.9622 19.2308 46.707 18.9824 46.3652 18.791C46.0234 18.5951 45.6589 18.4971 45.2715 18.4971C44.6836 18.4971 44.1914 18.6953 43.7949 19.0918C43.3984 19.4837 43.2002 19.9759 43.2002 20.5684C43.2002 21.1608 43.3984 21.6576 43.7949 22.0586C44.1914 22.4551 44.6836 22.6533 45.2715 22.6533ZM55.334 17.1572H56.8926V24H55.334V23.0771C55.1517 23.387 54.8555 23.6423 54.4453 23.8428C54.0397 24.0387 53.609 24.1367 53.1533 24.1367C52.2327 24.1367 51.4535 23.7926 50.8154 23.1045C50.182 22.4163 49.8652 21.571 49.8652 20.5684C49.8652 19.5749 50.182 18.734 50.8154 18.0459C51.4535 17.3577 52.2327 17.0137 53.1533 17.0137C53.6045 17.0137 54.0352 17.1139 54.4453 17.3145C54.8555 17.515 55.1517 17.7702 55.334 18.0801V17.1572ZM53.4746 22.6533C53.8574 22.6533 54.2197 22.5576 54.5615 22.3662C54.9079 22.1748 55.1654 21.931 55.334 21.6348V19.5361C55.1654 19.2308 54.9102 18.9824 54.5684 18.791C54.2266 18.5951 53.862 18.4971 53.4746 18.4971C52.8867 18.4971 52.3945 18.6953 51.998 19.0918C51.6016 19.4837 51.4033 19.9759 51.4033 20.5684C51.4033 21.1608 51.6016 21.6576 51.998 22.0586C52.3945 22.4551 52.8867 22.6533 53.4746 22.6533Z" fill="#8990A8"/>
<rect x="0.8" y="0.8" width="72.4" height="37.4" rx="18.7" stroke="#8990A8" stroke-width="1.6"/>
</svg>
