<svg width="60" height="20" viewBox="0 0 60 20" fill="none" xmlns="http://www.w3.org/2000/svg">
<rect width="60" height="20" fill="white"/>
<path d="M6.77132 12.6998C6.86548 13.0047 7.07437 13.2614 7.35393 13.4156C7.5233 13.5034 7.70668 13.5606 7.89591 13.5849C8.12798 13.6166 8.36178 13.6346 8.59597 13.6392H9.58738C9.91703 13.6392 10.3009 13.6392 10.6578 13.6188L11.7712 13.5736L12.3425 13.542L13.1939 13.4901L14.0114 13.4381L14.953 13.3908L15.7885 13.3456C16.1905 13.3208 16.5924 13.3072 16.9945 13.2756H16.9944C17.171 13.2658 17.3463 13.2401 17.5183 13.1988C17.7977 13.1392 18.0379 12.9624 18.1778 12.7133C18.2488 12.5762 18.299 12.4293 18.3268 12.2775C18.4293 11.7841 18.4838 11.2819 18.4894 10.7779C18.4894 10.3556 18.4894 9.93561 18.4713 9.51553C18.4713 9.14512 18.4713 8.77706 18.4194 8.40898V8.40908C18.3937 8.14191 18.3361 7.87879 18.2477 7.62545C18.0958 7.14779 17.7236 6.77225 17.2473 6.616C16.9755 6.52527 16.6932 6.46982 16.4072 6.45117C16.0798 6.42183 15.7523 6.406 15.4249 6.39471C14.9868 6.37889 14.5487 6.36759 14.1084 6.36084H11.8998L10.2129 6.39018C9.37056 6.40369 8.52595 6.39018 7.68141 6.43988C7.50932 6.44966 7.33803 6.47073 7.16878 6.50309C7.04619 6.5297 6.93499 6.59382 6.8504 6.68647C6.76582 6.77912 6.71218 6.89576 6.69676 7.02028C6.68325 7.22574 6.66067 7.42444 6.66067 7.62093C6.64484 7.89192 6.64484 8.16291 6.64031 8.4339C6.64031 8.80198 6.6268 9.16784 6.61319 9.53368C6.59968 9.86114 6.58838 10.1864 6.58838 10.5138V10.5137C6.57447 11.0329 6.59101 11.5525 6.63809 12.0697C6.66077 12.2837 6.70543 12.4948 6.77137 12.6998L6.77132 12.6998ZM17.0057 11.469H17.0056C17.0057 11.5907 16.9565 11.7073 16.8694 11.7924C16.7822 11.8774 16.6645 11.9237 16.5427 11.9207C16.4229 11.9207 16.3081 11.8731 16.2234 11.7883C16.1386 11.7036 16.0911 11.5888 16.0911 11.469C16.0911 11.3468 16.1405 11.2298 16.2282 11.1447C16.3158 11.0596 16.4342 11.0136 16.5563 11.0174C16.6757 11.018 16.79 11.0658 16.8742 11.1504C16.9584 11.235 17.0056 11.3496 17.0056 11.469L17.0057 11.469ZM16.2582 7.53965C16.38 7.5454 16.4949 7.59792 16.579 7.68624C16.6632 7.77455 16.7099 7.8919 16.7098 8.01388C16.7069 8.13163 16.658 8.24363 16.5736 8.32591C16.4893 8.40817 16.3761 8.45424 16.2582 8.45424C16.1364 8.4484 16.0215 8.39587 15.9374 8.30756C15.8532 8.21924 15.8064 8.10189 15.8065 7.98002C15.8095 7.86217 15.8583 7.75016 15.9427 7.66789C16.0271 7.58563 16.1403 7.53955 16.2582 7.53965ZM11.4255 8.07255C11.5617 7.97617 11.715 7.90641 11.8772 7.86709C11.8975 7.86709 11.9065 7.8558 11.9065 7.831V7.8309C11.9055 7.72131 11.9442 7.61505 12.0157 7.53198C12.0872 7.44891 12.1865 7.39457 12.2949 7.37925C12.4084 7.36644 12.5224 7.39709 12.6141 7.46494C12.7059 7.53289 12.7686 7.6329 12.7895 7.74509C12.7895 7.78118 12.8099 7.79026 12.8415 7.79026C13.0451 7.79963 13.2479 7.82151 13.4489 7.85579C13.5351 7.86375 13.6174 7.89541 13.6867 7.94713C13.756 7.99895 13.8098 8.06891 13.8418 8.14936C13.8939 8.29232 13.8704 8.45192 13.7793 8.57378C13.6884 8.69577 13.5421 8.76372 13.3902 8.75455C13.3134 8.75455 13.2186 8.73196 13.1237 8.72067C12.8116 8.67319 12.4941 8.67319 12.182 8.72067C12.1099 8.73126 12.0402 8.75495 11.9766 8.79064C11.8998 8.8358 11.893 8.87875 11.9518 8.94196H11.9517C12.0208 9.01203 12.1061 9.06395 12.2001 9.09328C12.3517 9.1454 12.5063 9.18835 12.663 9.22202C12.887 9.2684 13.1011 9.35409 13.2953 9.47487C13.4994 9.59786 13.6637 9.77691 13.7687 9.99084C13.8736 10.2047 13.9147 10.4442 13.887 10.6808C13.8513 11.1541 13.5809 11.5781 13.1666 11.8099C13.0676 11.8715 12.9615 11.9208 12.8505 11.9567C12.8279 11.9567 12.8233 11.9725 12.8301 11.9951H12.8302C12.8625 12.1167 12.8426 12.2463 12.7752 12.3526C12.7079 12.4589 12.5993 12.5323 12.4756 12.5552C12.3349 12.5805 12.1906 12.5376 12.0865 12.4396C11.9824 12.3417 11.9306 12.2003 11.9472 12.0584C11.9472 12.02 11.9472 12.0064 11.9065 11.9974C11.8102 11.9752 11.7168 11.941 11.6288 11.8957C11.5466 11.8626 11.476 11.8058 11.4257 11.7327C11.3756 11.6596 11.348 11.5734 11.3465 11.4847C11.3424 11.3609 11.3909 11.2413 11.48 11.1551C11.569 11.0691 11.6904 11.0247 11.814 11.0331C11.8854 11.0376 11.9555 11.0536 12.0218 11.0805C12.2295 11.1635 12.4629 11.1536 12.663 11.0534C12.8275 10.9765 12.9462 10.8268 12.9837 10.6492C13.001 10.5728 12.9942 10.493 12.9643 10.4206C12.9343 10.3482 12.8828 10.2868 12.8166 10.245C12.7088 10.1792 12.5904 10.1325 12.4666 10.1072C12.2792 10.0575 12.0849 10.0168 11.902 9.9491C11.6749 9.87379 11.4689 9.74525 11.3014 9.57428C11.1195 9.39473 11.0136 9.15226 11.0056 8.8968C10.9956 8.56834 11.154 8.25752 11.4256 8.07253L11.4255 8.07255ZM8.71562 7.94835C8.83538 7.94835 8.95031 7.99593 9.035 8.08061C9.11968 8.1653 9.16727 8.28023 9.16727 8.4C9.16727 8.51976 9.11968 8.6347 9.035 8.71938C8.95031 8.80406 8.83538 8.85165 8.71562 8.85165C8.59585 8.85165 8.48092 8.80406 8.39623 8.71938C8.31155 8.6347 8.26396 8.51976 8.26396 8.4C8.26396 8.27983 8.31185 8.16459 8.39704 8.07981C8.48223 7.99504 8.59766 7.94775 8.71784 7.94835L8.71562 7.94835ZM8.65694 11.3582C8.77671 11.3582 8.89154 11.4058 8.97622 11.4905C9.06101 11.5751 9.10859 11.6901 9.10859 11.8098C9.10859 11.9296 9.06101 12.0445 8.97622 12.1292C8.89154 12.2139 8.77671 12.2615 8.65694 12.2615C8.49554 12.2615 8.34644 12.1754 8.26579 12.0357C8.18514 11.8959 8.18514 11.7237 8.26579 11.584C8.34644 11.4443 8.49554 11.3582 8.65694 11.3582Z" fill="#00C414"/>
<path d="M23.6614 8.49641V9.83332H26.0047V10.8642H23.6614V12.2011H26.2659V13.232H22.5592V7.46554H26.2659V8.49641H23.6614Z" fill="#374577"/>
<path d="M29.0467 7.40111C29.1991 7.40111 29.3406 7.41453 29.4713 7.44138C29.6019 7.46822 29.7189 7.50312 29.8224 7.54607L29.5203 8.48836C29.4658 8.46151 29.406 8.44003 29.3406 8.42393C29.2808 8.40782 29.2046 8.39977 29.112 8.39977C28.9542 8.39977 28.829 8.45077 28.7365 8.55279C28.6439 8.64943 28.5977 8.78634 28.5977 8.96352V9.28567H29.5937V10.1877H28.5977V13.232H27.5281V10.1877H26.8096V9.28567H27.5281V8.89909C27.5281 8.65748 27.5635 8.4454 27.6342 8.26285C27.7104 8.07493 27.8166 7.91923 27.9527 7.79574C28.0887 7.66688 28.2493 7.57024 28.4344 7.50581C28.6194 7.43601 28.8236 7.40111 29.0467 7.40111Z" fill="#374577"/>
<path d="M33.9388 12.2816C33.7538 12.6038 33.5034 12.8642 33.1877 13.0629C32.8774 13.2615 32.4964 13.3608 32.0446 13.3608C31.7398 13.3608 31.4568 13.3098 31.1955 13.2078C30.9397 13.1004 30.7165 12.9528 30.526 12.7649C30.3355 12.5769 30.1858 12.3568 30.077 12.1045C29.9736 11.8467 29.9219 11.5649 29.9219 11.2588C29.9219 10.9743 29.9736 10.7058 30.077 10.4535C30.1804 10.1957 30.3246 9.97292 30.5097 9.785C30.6948 9.59171 30.9125 9.43869 31.1629 9.32594C31.4187 9.21319 31.699 9.15681 32.0038 9.15681C32.325 9.15681 32.6107 9.2105 32.8611 9.31789C33.1115 9.4199 33.321 9.56487 33.4898 9.75279C33.6585 9.93534 33.7864 10.1528 33.8735 10.4051C33.9606 10.6575 34.0041 10.9313 34.0041 11.2266C34.0041 11.2642 34.0041 11.2964 34.0041 11.3233C33.9987 11.3555 33.996 11.385 33.996 11.4118C33.9905 11.4387 33.9878 11.4682 33.9878 11.5004H30.9751C30.9969 11.6615 31.0404 11.8011 31.1057 11.9192C31.1765 12.032 31.2608 12.1286 31.3588 12.2092C31.4622 12.2843 31.5738 12.3407 31.6936 12.3783C31.8133 12.4105 31.9358 12.4266 32.061 12.4266C32.3059 12.4266 32.5073 12.3729 32.6652 12.2655C32.8284 12.1528 32.9564 12.0132 33.0489 11.8467L33.9388 12.2816ZM32.9672 10.7514C32.9618 10.6816 32.9373 10.6038 32.8938 10.5179C32.8557 10.432 32.7958 10.3514 32.7141 10.2763C32.6379 10.2011 32.54 10.1394 32.4202 10.091C32.3059 10.0427 32.1671 10.0186 32.0038 10.0186C31.7752 10.0186 31.5738 10.083 31.3996 10.2118C31.2255 10.3407 31.103 10.5206 31.0322 10.7514H32.9672Z" fill="#374577"/>
<path d="M38.6053 12.2253C38.4311 12.5582 38.1861 12.832 37.8704 13.0467C37.5602 13.2561 37.171 13.3608 36.7029 13.3608C36.3927 13.3608 36.1069 13.3098 35.8456 13.2078C35.5898 13.1004 35.3666 12.9528 35.1761 12.7649C34.9911 12.5769 34.8441 12.3568 34.7353 12.1045C34.6318 11.8467 34.5801 11.5649 34.5801 11.2588C34.5801 10.9528 34.6318 10.6709 34.7353 10.4132C34.8441 10.1555 34.9911 9.93534 35.1761 9.75279C35.3666 9.56487 35.5898 9.4199 35.8456 9.31789C36.1069 9.2105 36.3927 9.15681 36.7029 9.15681C37.1656 9.15681 37.5547 9.26151 37.8704 9.47091C38.1861 9.6803 38.4175 9.95144 38.5644 10.2843L37.5847 10.687C37.4922 10.5045 37.3724 10.3676 37.2254 10.2763C37.0839 10.1796 36.9043 10.1313 36.6866 10.1313C36.5451 10.1313 36.4117 10.1582 36.2865 10.2118C36.1613 10.2655 36.0497 10.3407 35.9518 10.4374C35.8592 10.534 35.7858 10.6521 35.7313 10.7917C35.6769 10.9313 35.6497 11.087 35.6497 11.2588C35.6497 11.4306 35.6769 11.5863 35.7313 11.7259C35.7858 11.8655 35.8592 11.9837 35.9518 12.0803C36.0497 12.1769 36.1613 12.2521 36.2865 12.3058C36.4117 12.3595 36.5451 12.3863 36.6866 12.3863C36.9097 12.3863 37.0975 12.338 37.2499 12.2414C37.4078 12.1394 37.533 11.9944 37.6255 11.8065L38.6053 12.2253Z" fill="#374577"/>
<path d="M39.7404 10.1877H39.0383V9.28567H39.7404V8.07762H40.81V9.28567H41.7898V10.1877H40.81V11.7179C40.81 11.8092 40.8182 11.8951 40.8345 11.9756C40.8563 12.0508 40.8944 12.1152 40.9488 12.1689C41.025 12.2548 41.1339 12.2978 41.2754 12.2978C41.3679 12.2978 41.4414 12.2897 41.4958 12.2736C41.5503 12.2521 41.602 12.2253 41.651 12.1931L41.953 13.1192C41.8279 13.1783 41.6918 13.2212 41.5448 13.2481C41.4033 13.2803 41.2454 13.2964 41.0713 13.2964C40.8699 13.2964 40.6875 13.2669 40.5242 13.2078C40.3664 13.1434 40.233 13.0575 40.1242 12.9501C39.8684 12.7085 39.7404 12.3649 39.7404 11.9192V10.1877Z" fill="#374577"/>
<path d="M43.2941 8.71386C43.2015 8.71386 43.1117 8.69775 43.0246 8.66554C42.943 8.62795 42.8695 8.57963 42.8042 8.52057C42.7443 8.45614 42.6953 8.38366 42.6572 8.30312C42.6246 8.22258 42.6083 8.13399 42.6083 8.03735C42.6083 7.94071 42.6246 7.85211 42.6572 7.77158C42.6953 7.69104 42.7443 7.62124 42.8042 7.56218C42.8695 7.49775 42.943 7.44943 43.0246 7.41722C43.1117 7.37963 43.2015 7.36084 43.2941 7.36084C43.4846 7.36084 43.6479 7.42795 43.7839 7.56218C43.92 7.69104 43.9881 7.84943 43.9881 8.03735C43.9881 8.22527 43.92 8.38634 43.7839 8.52057C43.6479 8.64943 43.4846 8.71386 43.2941 8.71386ZM42.7634 13.232V9.28567H43.8329V13.232H42.7634Z" fill="#374577"/>
<path d="M44.4681 9.28567H45.6846L46.6806 11.7984H46.7378L47.742 9.28567H48.9504L47.2277 13.232H46.1744L44.4681 9.28567Z" fill="#374577"/>
<path d="M51.2936 9.15681C51.6038 9.15681 51.8869 9.2105 52.1427 9.31789C52.4039 9.4199 52.6271 9.56487 52.8122 9.75279C53.0027 9.93534 53.1496 10.1555 53.2531 10.4132C53.3619 10.6709 53.4163 10.9528 53.4163 11.2588C53.4163 11.5649 53.3619 11.8467 53.2531 12.1045C53.1496 12.3622 53.0027 12.585 52.8122 12.7729C52.6271 12.9555 52.4039 13.1004 52.1427 13.2078C51.8869 13.3098 51.6038 13.3608 51.2936 13.3608C50.9833 13.3608 50.6975 13.3098 50.4363 13.2078C50.1805 13.1004 49.9573 12.9555 49.7668 12.7729C49.5817 12.585 49.4348 12.3622 49.3259 12.1045C49.2225 11.8467 49.1708 11.5649 49.1708 11.2588C49.1708 10.9528 49.2225 10.6709 49.3259 10.4132C49.4348 10.1555 49.5817 9.93534 49.7668 9.75279C49.9573 9.56487 50.1805 9.4199 50.4363 9.31789C50.6975 9.2105 50.9833 9.15681 51.2936 9.15681ZM51.2936 12.3863C51.4296 12.3863 51.5603 12.3622 51.6855 12.3139C51.8161 12.2602 51.9304 12.185 52.0284 12.0884C52.1263 11.9917 52.2025 11.8736 52.257 11.734C52.3169 11.5944 52.3468 11.436 52.3468 11.2588C52.3468 11.0816 52.3169 10.9233 52.257 10.7837C52.2025 10.6441 52.1263 10.5259 52.0284 10.4293C51.9304 10.3327 51.8161 10.2602 51.6855 10.2118C51.5603 10.1582 51.4296 10.1313 51.2936 10.1313C51.152 10.1313 51.0187 10.1582 50.8935 10.2118C50.7683 10.2602 50.6567 10.3327 50.5588 10.4293C50.4608 10.5259 50.3819 10.6441 50.322 10.7837C50.2675 10.9233 50.2403 11.0816 50.2403 11.2588C50.2403 11.436 50.2675 11.5944 50.322 11.734C50.3819 11.8736 50.4608 11.9917 50.5588 12.0884C50.6567 12.185 50.7683 12.2602 50.8935 12.3139C51.0187 12.3622 51.152 12.3863 51.2936 12.3863Z" fill="#374577"/>
</svg>
