<svg width="16" height="16" viewBox="0 0 16 16" fill="none" xmlns="http://www.w3.org/2000/svg">
<path d="M4.66675 11.9999C3.93341 11.9999 3.34008 12.5999 3.34008 13.3333C3.34008 14.0666 3.93341 14.6666 4.66675 14.6666C5.40008 14.6666 6.00008 14.0666 6.00008 13.3333C6.00008 12.5999 5.40008 11.9999 4.66675 11.9999ZM1.33341 2.66659H2.00008L4.40008 7.72658L3.50008 9.35325C3.01341 10.2466 3.65341 11.3333 4.66675 11.3333H12.0001C12.3667 11.3333 12.6667 11.0333 12.6667 10.6666C12.6667 10.2999 12.3667 9.99992 12.0001 9.99992H4.66675L5.40008 8.66658H10.3667C10.8667 8.66658 11.3067 8.39325 11.5334 7.97992L13.9201 3.65325C14.1667 3.21325 13.8467 2.66659 13.3401 2.66659H3.47341L3.02675 1.71325C2.92008 1.47992 2.68008 1.33325 2.42675 1.33325H1.33341C0.966748 1.33325 0.666748 1.63325 0.666748 1.99992C0.666748 2.36659 0.966748 2.66659 1.33341 2.66659ZM11.3334 11.9999C10.6001 11.9999 10.0067 12.5999 10.0067 13.3333C10.0067 14.0666 10.6001 14.6666 11.3334 14.6666C12.0667 14.6666 12.6667 14.0666 12.6667 13.3333C12.6667 12.5999 12.0667 11.9999 11.3334 11.9999Z" fill="#2E5CFF"/>
</svg>
