<svg width="16" height="16" viewBox="0 0 16 16" fill="none" xmlns="http://www.w3.org/2000/svg">
<path fill-rule="evenodd" clip-rule="evenodd" d="M8 1.33325H14V13.3333H10L8 15.3333L6 13.3333H2V1.33325H8ZM6.39999 5.70825C6.39999 6.18325 6.76499 6.48825 7.89999 6.78325C9.03499 7.07825 10.25 7.56325 10.25 8.98325C10.25 10.0083 9.47499 10.5733 8.49999 10.7583V11.8333H6.99999V10.7483C6.03999 10.5433 5.21999 9.92825 5.15999 8.83325H6.25999C6.31499 9.42325 6.71999 9.88325 7.74999 9.88325C8.85499 9.88325 9.09999 9.33325 9.09999 8.98825C9.09999 8.52325 8.84999 8.08325 7.59999 7.78325C6.20499 7.44825 5.24999 6.87325 5.24999 5.71825C5.24999 4.75325 6.02999 4.12325 6.99999 3.91325V2.83325H8.49999V3.92825C9.54499 4.18325 10.07 4.97325 10.105 5.83325H8.99999C8.96999 5.20825 8.63999 4.78325 7.74999 4.78325C6.90499 4.78325 6.39999 5.16325 6.39999 5.70825Z" fill="#F7CB2F"/>
</svg>
