<svg width="97" height="52" viewBox="0 0 97 52" fill="none" xmlns="http://www.w3.org/2000/svg">
<path fill-rule="evenodd" clip-rule="evenodd" d="M17.0065 13.4026H10.7078V32.0013V32.2987H10.4104H6.59613H6.29871V32.0013V31.039V29.1494H0V31.039V32.2987V34.8182C0 36.9054 1.69202 38.5974 3.77922 38.5974H13.2273C15.3145 38.5974 17.0065 36.9054 17.0065 34.8182V13.4026ZM27.7145 13.4026H21.4158V19.7013V22.8506V29.1494V32.2987V38.5974H27.7145H40.3119V32.2987H27.7145V29.1494H37.1625V22.8506H27.7145V19.7013H40.3119V13.4026H27.7145ZM43.4612 13.4026H62.3573V19.7013H56.0586V38.5974H49.7599V19.7013H43.4612V13.4026ZM80.6552 24.1104H72.4669L65.5068 32.2987V38.5974H84.4029V32.2987H73.6951L80.6552 24.1104ZM88.1817 24.1104H87.5518V24.5915C87.2175 24.2923 86.7761 24.1104 86.2921 24.1104C85.2485 24.1104 84.4025 24.9564 84.4025 26C84.4025 27.0436 85.2485 27.8896 86.2921 27.8896C86.7761 27.8896 87.2175 27.7077 87.5518 27.4085V27.8896H88.1817V26V24.1104ZM86.2921 27.2597C86.9878 27.2597 87.5518 26.6957 87.5518 26C87.5518 25.3043 86.9878 24.7403 86.2921 24.7403C85.5964 24.7403 85.0324 25.3043 85.0324 26C85.0324 26.6957 85.5964 27.2597 86.2921 27.2597ZM90.7012 27.2597C91.3969 27.2597 91.9609 26.6957 91.9609 26C91.9609 25.3043 91.3969 24.7403 90.7012 24.7403C90.0055 24.7403 89.4415 25.3043 89.4415 26C89.4415 26.6957 90.0055 27.2597 90.7012 27.2597ZM90.7012 27.8896C90.2172 27.8896 89.7758 27.7077 89.4415 27.4085V29.1493H88.8116V26V24.1104H89.4415V24.5915C89.7758 24.2923 90.2172 24.1104 90.7012 24.1104C91.7448 24.1104 92.5908 24.9564 92.5908 26C92.5908 27.0436 91.7448 27.8896 90.7012 27.8896ZM93.2207 24.1104H93.8505V24.5915C94.1849 24.2923 94.6263 24.1104 95.1103 24.1104C96.1539 24.1104 96.9999 24.9564 96.9999 26C96.9999 27.0436 96.1539 27.8896 95.1103 27.8896C94.6263 27.8896 94.1849 27.7077 93.8505 27.4085V29.1493H93.2207V26V24.1104ZM95.1103 27.2597C94.4145 27.2597 93.8505 26.6957 93.8505 26C93.8505 25.3043 94.4145 24.7403 95.1103 24.7403C95.806 24.7403 96.37 25.3043 96.37 26C96.37 26.6957 95.806 27.2597 95.1103 27.2597Z" fill="#242424"/>
<rect width="7.87338" height="6.29871" transform="matrix(-1 0 0 1 97 13.4026)" fill="#00B7EE"/>
<rect width="7.87338" height="6.29871" transform="matrix(-1 0 0 1 89.1265 13.4026)" fill="#FFCC01"/>
<rect width="7.87338" height="6.29871" transform="matrix(-1 0 0 1 81.2534 13.4026)" fill="#FF5800"/>
<rect width="7.87338" height="6.29871" transform="matrix(-1 0 0 1 73.3799 13.4026)" fill="#D2002E"/>
</svg>
