<svg width="125" height="23" viewBox="0 0 125 23" fill="none" xmlns="http://www.w3.org/2000/svg">
<path d="M26.1754 19.5517C28.3994 21.7432 31.0939 22.8392 34.2589 22.8392C37.4523 22.8392 40.1469 21.7432 42.3426 19.5517C44.5667 17.3312 45.6785 14.6205 45.6785 11.4196C45.6785 8.21864 44.5667 5.52234 42.3426 3.33071C40.1469 1.11023 37.4523 0 34.2589 0C31.0939 0 28.3994 1.11023 26.1754 3.33071C23.9514 5.52234 22.8394 8.21864 22.8394 11.4196C22.8394 14.6205 23.9514 17.3312 26.1754 19.5517Z" fill="#F7CB2F"/>
<path d="M0 0H5.08311H17.7561H22.8392L11.5088 22.8392L0 0Z" fill="#2E5CFF"/>
<path d="M51.6782 0H56.3676L61.1211 13.6841L61.9562 16.6394H62.2132L63.1125 13.6841L68.0588 0H72.7482L64.3651 22.8392H59.8043L51.6782 0Z" fill="white"/>
<path fill-rule="evenodd" clip-rule="evenodd" d="M80.3077 23C85.0156 23 88.8322 19.1835 88.8322 14.4755C88.8322 9.76759 85.0156 5.95105 80.3077 5.95105C75.5997 5.95105 71.7832 9.76759 71.7832 14.4755C71.7832 19.1835 75.5997 23 80.3077 23ZM80.3077 18.979C82.7949 18.979 84.8111 16.9628 84.8111 14.4755C84.8111 11.9883 82.7949 9.97205 80.3077 9.97205C77.8204 9.97205 75.8042 11.9883 75.8042 14.4755C75.8042 16.9628 77.8204 18.979 80.3077 18.979Z" fill="white"/>
<path d="M92.0488 22.8392V0H96.2306V22.8392H92.0488Z" fill="white"/>
<path d="M106.846 19.3007C104.755 19.3007 103.63 18.6252 103.63 16.5343V9.93988L108.777 9.97205V6.43359H103.629V2.25177H99.4473V16.8238C99.4473 20.6518 102.408 22.8392 106.203 22.8392H108.776V19.3007H106.846Z" fill="white"/>
<path d="M111.35 19.4294L119.295 10.6154H111.35V7.0769H124.538V10.6154L116.432 19.3007H124.538V22.8391H111.35V19.4294Z" fill="white"/>
</svg>
