<svg width="97" height="18" viewBox="0 0 97 18" fill="none" xmlns="http://www.w3.org/2000/svg">
<path d="M20.3872 15.3013C22.1194 17.0164 24.2181 17.8741 26.6833 17.8741C29.1705 17.8741 31.2693 17.0164 32.9794 15.3013C34.7117 13.5636 35.5777 11.4421 35.5777 8.93706C35.5777 6.43198 34.7117 4.32183 32.9794 2.60664C31.2693 0.868872 29.1705 0 26.6833 0C24.2181 0 22.1194 0.868872 20.3872 2.60664C18.6549 4.32183 17.7888 6.43198 17.7888 8.93706C17.7888 11.4421 18.6549 13.5636 20.3872 15.3013Z" fill="#F7CB2F"/>
<path d="M0 0H3.95911H13.8298H17.7889L8.96392 17.8741L0 0Z" fill="#2E5CFF"/>
<path d="M40.251 0H43.9034L47.6058 10.7093L48.2563 13.0222H48.4564L49.1569 10.7093L53.0094 0H56.6618L50.1325 17.8741H46.5802L40.251 0Z" fill="#394055"/>
<path fill-rule="evenodd" clip-rule="evenodd" d="M62.5496 18C66.2165 18 69.1891 15.0132 69.1891 11.3287C69.1891 7.6442 66.2165 4.65735 62.5496 4.65735C58.8827 4.65735 55.9101 7.6442 55.9101 11.3287C55.9101 15.0132 58.8827 18 62.5496 18ZM62.5496 14.8532C64.4869 14.8532 66.0573 13.2752 66.0573 11.3287C66.0573 9.38217 64.4869 7.80421 62.5496 7.80421C60.6124 7.80421 59.042 9.38217 59.042 11.3287C59.042 13.2752 60.6124 14.8532 62.5496 14.8532Z" fill="#394055"/>
<path d="M71.6946 0V17.8741H74.9518V0H71.6946Z" fill="#394055"/>
<path d="M83.2198 15.1049C81.5912 15.1049 80.715 14.5762 80.715 12.9399V7.77902L84.7237 7.80419V5.03496H80.7142V1.76224H77.4572V13.1664C77.4572 16.1622 79.7629 17.8741 82.7193 17.8741H84.723V15.1049H83.2198Z" fill="#394055"/>
<path d="M92.916 8.30768L86.7274 15.2056V17.8741H96.9999V15.1049H90.6861L96.9999 8.30768V5.53845H86.7274V8.30768H92.916Z" fill="#394055"/>
</svg>
