<svg width="97" height="19" viewBox="0 0 97 19" fill="none" xmlns="http://www.w3.org/2000/svg"><path d="M20.387 15.801c1.732 1.715 3.831 2.573 6.296 2.573 2.488 0 4.586-.858 6.296-2.573 1.733-1.737 2.599-3.859 2.599-6.364s-.866-4.615-2.599-6.33C31.27 1.369 29.171.5 26.683.5c-2.465 0-4.564.869-6.296 2.607-1.732 1.715-2.598 3.825-2.598 6.33s.866 4.627 2.598 6.364z" fill="#F7CB2F"/><path d="M0 .5H17.789L8.964 18.374 0 .5z" fill="#2E5CFF"/><path d="M40.251.5h3.652l3.703 10.71.65 2.312h.2l.7-2.313L53.01.5h3.653l-6.53 17.874H46.58L40.251.5z" fill="#394055"/><path fill-rule="evenodd" clip-rule="evenodd" d="M62.55 18.5c3.666 0 6.64-2.987 6.64-6.671 0-3.685-2.974-6.672-6.64-6.672-3.667 0-6.64 2.987-6.64 6.672 0 3.684 2.973 6.671 6.64 6.671zm0-3.147a3.516 3.516 0 0 0 3.507-3.524 3.516 3.516 0 0 0-3.507-3.525 3.516 3.516 0 0 0-3.508 3.525 3.516 3.516 0 0 0 3.508 3.524z" fill="#394055"/><path d="M71.695.5v17.874h3.257V.5h-3.257zM83.22 15.605c-1.629 0-2.505-.529-2.505-2.165V8.279l4.009.025V5.535h-4.01V2.262h-3.257v11.404c0 2.996 2.306 4.708 5.262 4.708h2.004v-2.77H83.22zM92.916 8.808l-6.189 6.898v2.668H97v-2.77h-6.314L97 8.809v-2.77H86.727v2.77h6.189z" fill="#394055"/></svg>