<svg width="120" height="52" viewBox="0 0 120 52" fill="none" xmlns="http://www.w3.org/2000/svg">
<path d="M25.1688 33.7788C27.3068 35.875 29.8971 36.9233 32.9397 36.9233C36.0096 36.9233 38.6001 35.875 40.7108 33.7788C42.8489 31.6548 43.9177 29.062 43.9177 26.0002C43.9177 22.9384 42.8489 20.3594 40.7108 18.263C38.6001 16.1391 36.0096 15.0771 32.9397 15.0771C29.8971 15.0771 27.3068 16.1391 25.1688 18.263C23.0307 20.3594 21.9617 22.9384 21.9617 26.0002C21.9617 29.062 23.0307 31.6548 25.1688 33.7788Z" fill="#F7CB2F"/>
<path d="M0 15.0771H4.88655H17.0695H21.956L11.0638 36.9233L0 15.0771Z" fill="#2E5CFF"/>
<path d="M49.9515 15H54.4595L59.0293 28.0892L59.8321 30.916H60.0791L60.9436 28.0892L65.6987 15H70.2067L62.1478 36.8461H57.7633L49.9515 15Z" fill="#394055"/>
<path fill-rule="evenodd" clip-rule="evenodd" d="M77.4744 37.0001C82.0003 37.0001 85.6693 33.3495 85.6693 28.8462C85.6693 24.343 82.0003 20.6924 77.4744 20.6924C72.9485 20.6924 69.2796 24.343 69.2796 28.8462C69.2796 33.3495 72.9485 37.0001 77.4744 37.0001ZM77.4765 33.1535C79.8677 33.1535 81.8062 31.2248 81.8062 28.8458C81.8062 26.4667 79.8677 24.5381 77.4765 24.5381C75.0853 24.5381 73.1468 26.4667 73.1468 28.8458C73.1468 31.2248 75.0853 33.1535 77.4765 33.1535Z" fill="#394055"/>
<path d="M88.7579 36.8461V15H92.7783V36.8461H88.7579Z" fill="#394055"/>
<path d="M102.984 33.461C100.974 33.461 99.8927 32.8148 99.8927 30.8148V24.5072L104.841 24.5379V21.1533H99.8918V17.1533H95.8714V31.0918C95.8714 34.7533 98.7175 36.8456 102.367 36.8456H104.84V33.461H102.984Z" fill="#394055"/>
<path d="M107.316 33.5849L114.955 25.1541H107.316V21.7695H119.996V25.1541L112.202 33.4618H119.996V36.8464H107.316V33.5849Z" fill="#394055"/>
</svg>
