<svg width="121" height="53" viewBox="0 0 121 53" fill="none" xmlns="http://www.w3.org/2000/svg">
<path d="M25.7276 34.0112C27.8656 36.1074 30.4559 37.1557 33.4985 37.1557C36.5684 37.1557 39.1588 36.1074 41.2696 34.0112C43.4077 31.8872 44.4765 29.2944 44.4765 26.2326C44.4765 23.1709 43.4077 20.5918 41.2696 18.4955C39.1588 16.3715 36.5684 15.3096 33.4985 15.3096C30.4559 15.3096 27.8656 16.3715 25.7276 18.4955C23.5895 20.5918 22.5205 23.1709 22.5205 26.2326C22.5205 29.2944 23.5895 31.8872 25.7276 34.0112Z" fill="white"/>
<path d="M0.558594 15.3096H5.44514H17.6281H22.5146L11.6224 37.1557L0.558594 15.3096Z" fill="white"/>
<path d="M50.5098 15.2324H55.0178L59.5876 28.3216L60.3903 31.1484H60.6374L61.5019 28.3216L66.2569 15.2324H70.765L62.7061 37.0786H58.3216L50.5098 15.2324Z" fill="white"/>
<path fill-rule="evenodd" clip-rule="evenodd" d="M78.0327 37.2325C82.5586 37.2325 86.2276 33.5819 86.2276 29.0786C86.2276 24.5754 82.5586 20.9248 78.0327 20.9248C73.5069 20.9248 69.8379 24.5754 69.8379 29.0786C69.8379 33.5819 73.5069 37.2325 78.0327 37.2325ZM78.0348 33.3859C80.4261 33.3859 82.3645 31.4573 82.3645 29.0782C82.3645 26.6991 80.4261 24.7705 78.0348 24.7705C75.6436 24.7705 73.7052 26.6991 73.7052 29.0782C73.7052 31.4573 75.6436 33.3859 78.0348 33.3859Z" fill="white"/>
<path d="M89.3164 37.0786V15.2324H93.3368V37.0786H89.3164Z" fill="white"/>
<path d="M103.543 33.6934C101.533 33.6934 100.451 33.0473 100.451 31.0473V24.7396L105.399 24.7703V21.3857H100.45V17.3857H96.4297V31.3242C96.4297 34.9857 99.2757 37.078 102.925 37.078H105.398V33.6934H103.543Z" fill="white"/>
<path d="M107.874 33.8173L115.513 25.3866H107.874V22.002H120.554V25.3866L112.76 33.6943H120.554V37.0789H107.874V33.8173Z" fill="white"/>
</svg>
