<svg width="118" height="31" viewBox="0 0 118 31" fill="none" xmlns="http://www.w3.org/2000/svg">
<path fill-rule="evenodd" clip-rule="evenodd" d="M20.6883 0H13.026V22.8477V23.2131H12.6642H8.02416H7.66235V22.8477V21.6656V19.3443H0V21.6656V23.2131V26.3082C0 28.8722 2.05833 30.9508 4.59741 30.9508H16.0909C18.63 30.9508 20.6883 28.8722 20.6883 26.3082V0ZM33.7145 0H26.0522V7.73771V11.6066V19.3443V23.2131V30.9508H33.7145H49.0392V23.2131H33.7145V19.3443H45.2081V11.6066H33.7145V7.73771H49.0392V0H33.7145ZM52.8703 0H75.8574V7.73771H68.195V30.9508H60.5327V7.73771H52.8703V0ZM98.1167 13.1541H88.1556L79.6887 23.2131V30.9508H102.676V23.2131H89.6498L98.1167 13.1541ZM107.273 13.1541H106.506V13.7452C106.1 13.3776 105.563 13.1541 104.974 13.1541C103.704 13.1541 102.675 14.1934 102.675 15.4754C102.675 16.7574 103.704 17.7967 104.974 17.7967C105.563 17.7967 106.1 17.5732 106.506 17.2056V17.7967H107.273V15.4754V13.1541ZM104.974 17.0229C105.82 17.0229 106.506 16.3301 106.506 15.4754C106.506 14.6207 105.82 13.9279 104.974 13.9279C104.128 13.9279 103.441 14.6207 103.441 15.4754C103.441 16.3301 104.128 17.0229 104.974 17.0229ZM110.338 17.0229C111.184 17.0229 111.87 16.3301 111.87 15.4754C111.87 14.6207 111.184 13.9279 110.338 13.9279C109.491 13.9279 108.805 14.6207 108.805 15.4754C108.805 16.3301 109.491 17.0229 110.338 17.0229ZM110.338 17.7967C109.749 17.7967 109.212 17.5732 108.805 17.2056V19.3443H108.039V15.4754V13.1541H108.805V13.7452C109.212 13.3776 109.749 13.1541 110.338 13.1541C111.607 13.1541 112.636 14.1934 112.636 15.4754C112.636 16.7574 111.607 17.7967 110.338 17.7967ZM113.402 13.1541H114.169V13.7452C114.575 13.3776 115.112 13.1541 115.701 13.1541C116.971 13.1541 118 14.1934 118 15.4754C118 16.7574 116.971 17.7967 115.701 17.7967C115.112 17.7967 114.575 17.5732 114.169 17.2056V19.3443H113.402V15.4754V13.1541ZM115.701 17.0229C114.855 17.0229 114.169 16.3301 114.169 15.4754C114.169 14.6207 114.855 13.9279 115.701 13.9279C116.548 13.9279 117.234 14.6207 117.234 15.4754C117.234 16.3301 116.548 17.0229 115.701 17.0229Z" fill="white"/>
<rect width="9.57793" height="7.73771" transform="matrix(-1 0 0 1 118 0)" fill="#00B7EE"/>
<rect width="9.57793" height="7.73771" transform="matrix(-1 0 0 1 108.422 0)" fill="#FFCC01"/>
<rect width="9.57793" height="7.73771" transform="matrix(-1 0 0 1 98.8441 0)" fill="#FF5800"/>
<rect width="9.57793" height="7.73771" transform="matrix(-1 0 0 1 89.2664 0)" fill="#D2002E"/>
</svg>
