<svg width="120" height="32" viewBox="0 0 120 32" fill="none" xmlns="http://www.w3.org/2000/svg">
<g clip-path="url(#clip0_177_14036)">
<path fill-rule="evenodd" clip-rule="evenodd" d="M21 0.444458H13.2222V23.4105V23.7778H12.8549H8.14505H7.77778V23.4105V22.2222V19.8889H0V22.2222V23.7778V26.8889C0 29.4662 2.08933 31.5556 4.66667 31.5556H16.3333C18.9107 31.5556 21 29.4662 21 26.8889V0.444458Z" fill="#242424"/>
<path fill-rule="evenodd" clip-rule="evenodd" d="M34.2221 0.444458H26.4443V8.22224V12.1111V19.8889V23.7778V31.5556H34.2221H49.7777V23.7778H34.2221V19.8889H45.8888V12.1111H34.2221V8.22224H49.7777V0.444458H34.2221Z" fill="#242424"/>
<path fill-rule="evenodd" clip-rule="evenodd" d="M77.0001 0.444458H53.6667V8.22224H61.4445V31.5556H69.2223V8.22224H77.0001V0.444458Z" fill="#242424"/>
<path fill-rule="evenodd" clip-rule="evenodd" d="M99.5947 13.6667H89.4836L80.8889 23.7778V31.5556H104.222V23.7778H91L99.5947 13.6667Z" fill="#242424"/>
<path fill-rule="evenodd" clip-rule="evenodd" d="M108.111 13.6667H108.889V16V18.3334H108.111V17.7392C107.699 18.1087 107.153 18.3334 106.556 18.3334C105.267 18.3334 104.222 17.2886 104.222 16C104.222 14.7114 105.267 13.6667 106.556 13.6667C107.153 13.6667 107.699 13.8913 108.111 14.2608V13.6667ZM108.111 16C108.111 16.8591 107.414 17.5556 106.556 17.5556C105.697 17.5556 105 16.8591 105 16C105 15.1409 105.697 14.4445 106.556 14.4445C107.414 14.4445 108.111 15.1409 108.111 16ZM113.556 16C113.556 16.8591 112.86 17.5556 112 17.5556C111.141 17.5556 110.444 16.8591 110.444 16C110.444 15.1409 111.141 14.4445 112 14.4445C112.86 14.4445 113.556 15.1409 113.556 16ZM110.444 17.7392C110.857 18.1087 111.403 18.3334 112 18.3334C113.289 18.3334 114.333 17.2886 114.333 16C114.333 14.7114 113.289 13.6667 112 13.6667C111.403 13.6667 110.857 13.8913 110.444 14.2608V13.6667H109.667V16V19.8889H110.444V17.7392ZM115.889 13.6667H115.111V16V19.8889H115.889V17.7392C116.301 18.1087 116.847 18.3334 117.444 18.3334C118.733 18.3334 119.778 17.2886 119.778 16C119.778 14.7114 118.733 13.6667 117.444 13.6667C116.847 13.6667 116.301 13.8913 115.889 14.2608V13.6667ZM115.889 16C115.889 16.8591 116.585 17.5556 117.444 17.5556C118.304 17.5556 119 16.8591 119 16C119 15.1409 118.304 14.4445 117.444 14.4445C116.585 14.4445 115.889 15.1409 115.889 16Z" fill="#242424"/>
<path d="M110.056 0.444458H119.778V8.22224H110.056V0.444458Z" fill="#00B7EE"/>
<path d="M100.333 0.444458H110.055V8.22224H100.333V0.444458Z" fill="#FFCC01"/>
<path d="M90.611 0.444458H100.333V8.22224H90.611V0.444458Z" fill="#FF5800"/>
<path d="M80.8893 0.444458H90.6116V8.22224H80.8893V0.444458Z" fill="#D2002E"/>
</g>
<defs>
<clipPath id="clip0_177_14036">
<rect width="120" height="31.1111" fill="white" transform="translate(0 0.444458)"/>
</clipPath>
</defs>
</svg>
