<svg width="56" height="56" viewBox="0 0 56 56" fill="none" xmlns="http://www.w3.org/2000/svg">
<rect width="56" height="56" rx="12" fill="#F4F4F9"/>
<rect x="6" y="6" width="44" height="44" rx="7" fill="white"/>
<path d="M45.2503 38.1033C46.4034 39.3855 45.5018 41.4284 43.7775 41.4406L21.3932 41.5998C19.6702 41.612 18.7392 39.5851 19.8711 38.286L30.9569 25.5631C31.7457 24.6577 33.1489 24.6467 33.9519 25.5396L45.2503 38.1033Z" fill="#CED6E2"/>
<path fill-rule="evenodd" clip-rule="evenodd" d="M24.7103 18.1086C26.1868 19.8255 25.9937 22.4129 24.2788 23.8878C22.5639 25.3627 19.9767 25.1666 18.5001 23.4497C17.0235 21.7329 17.2167 19.1455 18.9316 17.6706C20.6465 16.1957 23.2337 16.3918 24.7103 18.1086ZM25.8056 41.5864C27.5278 41.5745 28.4305 39.5364 27.2822 38.2529L20.8119 31.0212C20.0091 30.1239 18.6013 30.1342 17.8116 31.0431L11.4512 38.3639C10.3221 39.6634 11.2534 41.6875 12.9749 41.6755L25.8056 41.5864Z" fill="#B0B7C4"/>
</svg>
