<svg width="50" height="50" viewBox="0 0 50 50" fill="none" xmlns="http://www.w3.org/2000/svg">
<rect width="50" height="50" fill="#EFF2FD"/>
<path d="M25.0448 25.2431C26.8282 25.2431 28.2739 23.7973 28.2739 22.0139C28.2739 20.2305 26.8282 18.7847 25.0448 18.7847C23.2613 18.7847 21.8156 20.2305 21.8156 22.0139C21.8156 23.7973 23.2613 25.2431 25.0448 25.2431Z" fill="#A2A9C1"/>
<path fill-rule="evenodd" clip-rule="evenodd" d="M33.6558 13.4028H30.2436L28.9089 11.9497C28.5107 11.5083 27.9294 11.25 27.3266 11.25H22.7627C22.16 11.25 21.5787 11.5083 21.1697 11.9497L19.8457 13.4028H16.4336C15.2495 13.4028 14.2808 14.3715 14.2808 15.5556V28.4722C14.2808 29.6562 15.2495 30.625 16.4336 30.625H33.6558C34.8398 30.625 35.8086 29.6562 35.8086 28.4722V15.5556C35.8086 14.3715 34.8398 13.4028 33.6558 13.4028ZM25.0447 27.3958C22.0738 27.3958 19.6627 24.9847 19.6627 22.0139C19.6627 19.0431 22.0738 16.6319 25.0447 16.6319C28.0155 16.6319 30.4266 19.0431 30.4266 22.0139C30.4266 24.9847 28.0155 27.3958 25.0447 27.3958Z" fill="#A2A9C1"/>
<path fill-rule="evenodd" clip-rule="evenodd" d="M8.33325 35.6503V38.6806H8.7002V37.5738H9.36308C9.59884 37.5738 9.79218 37.5309 9.9431 37.4451C10.094 37.3583 10.2055 37.2419 10.2775 37.0959C10.3505 36.9499 10.387 36.7876 10.387 36.6091C10.387 36.4305 10.3505 36.2687 10.2775 36.1237C10.2045 35.9787 10.0921 35.8638 9.94014 35.779C9.78922 35.6932 9.59489 35.6503 9.35716 35.6503H8.33325ZM8.7002 37.2483H9.35124C9.514 37.2483 9.64471 37.2202 9.74335 37.1639C9.84199 37.1077 9.91351 37.0317 9.9579 36.9361C10.0033 36.8394 10.026 36.7304 10.026 36.6091C10.026 36.4877 10.0033 36.3792 9.9579 36.2835C9.91351 36.1879 9.8415 36.1129 9.74187 36.0586C9.64224 36.0034 9.51006 35.9758 9.34533 35.9758H8.7002V37.2483Z" fill="#A2A9C1"/>
<path d="M10.9308 36.4078V38.6806H11.28V37.2423C11.28 37.1398 11.3046 37.0485 11.3539 36.9686C11.4042 36.8877 11.4723 36.8246 11.5581 36.7792C11.6449 36.7329 11.7436 36.7097 11.8541 36.7097C11.9004 36.7097 11.9443 36.7131 11.9857 36.72C12.0282 36.726 12.0553 36.7304 12.0671 36.7334V36.3782C12.0474 36.3763 12.0183 36.3748 11.9798 36.3738C11.9414 36.3728 11.9093 36.3723 11.8836 36.3723C11.7475 36.3723 11.6252 36.4073 11.5167 36.4774C11.4082 36.5474 11.3332 36.6387 11.2918 36.7511H11.2681V36.4078H10.9308Z" fill="#A2A9C1"/>
<path fill-rule="evenodd" clip-rule="evenodd" d="M12.7951 38.5814C12.95 38.6791 13.13 38.7279 13.3352 38.7279C13.5404 38.7279 13.7199 38.6791 13.8738 38.5814C14.0286 38.4838 14.149 38.3471 14.2348 38.1716C14.3216 37.996 14.365 37.7908 14.365 37.556C14.365 37.3193 14.3216 37.1126 14.2348 36.9361C14.149 36.7595 14.0286 36.6224 13.8738 36.5247C13.7199 36.4271 13.5404 36.3782 13.3352 36.3782C13.13 36.3782 12.95 36.4271 12.7951 36.5247C12.6412 36.6224 12.5209 36.7595 12.4341 36.9361C12.3483 37.1126 12.3053 37.3193 12.3053 37.556C12.3053 37.7908 12.3483 37.996 12.4341 38.1716C12.5209 38.3471 12.6412 38.4838 12.7951 38.5814ZM13.7199 38.2944C13.6193 38.3743 13.491 38.4142 13.3352 38.4142C13.1793 38.4142 13.0511 38.3743 12.9505 38.2944C12.8499 38.2145 12.7754 38.1094 12.727 37.9792C12.6787 37.849 12.6545 37.7079 12.6545 37.556C12.6545 37.4041 12.6787 37.2626 12.727 37.1314C12.7754 37.0002 12.8499 36.8941 12.9505 36.8133C13.0511 36.7324 13.1793 36.6919 13.3352 36.6919C13.491 36.6919 13.6193 36.7324 13.7199 36.8133C13.8205 36.8941 13.895 37.0002 13.9433 37.1314C13.9916 37.2626 14.0158 37.4041 14.0158 37.556C14.0158 37.7079 13.9916 37.849 13.9433 37.9792C13.895 38.1094 13.8205 38.2145 13.7199 38.2944Z" fill="#A2A9C1"/>
<path fill-rule="evenodd" clip-rule="evenodd" d="M15.2546 38.5844C15.3996 38.6801 15.5668 38.7279 15.7562 38.7279C15.9022 38.7279 16.0191 38.7037 16.1069 38.6554C16.1947 38.6061 16.2623 38.5504 16.3096 38.4882C16.357 38.4251 16.3935 38.3728 16.4191 38.3314H16.4605V38.6806H16.7979V35.6503H16.4487V36.7689H16.4191C16.3935 36.7294 16.3575 36.6791 16.3111 36.6179C16.2657 36.5558 16.1996 36.5006 16.1128 36.4522C16.027 36.4029 15.9101 36.3782 15.7622 36.3782C15.5708 36.3782 15.4021 36.4261 15.2561 36.5218C15.1101 36.6174 14.9962 36.7531 14.9143 36.9287C14.8324 37.1042 14.7915 37.3114 14.7915 37.5501C14.7915 37.7908 14.8324 37.9994 14.9143 38.176C14.9962 38.3516 15.1096 38.4877 15.2546 38.5844ZM16.1587 38.3047C16.062 38.3777 15.9437 38.4142 15.8036 38.4142C15.6576 38.4142 15.5353 38.3758 15.4366 38.2988C15.339 38.2209 15.265 38.1163 15.2147 37.9851C15.1654 37.8529 15.1407 37.706 15.1407 37.5442C15.1407 37.3844 15.1649 37.2404 15.2132 37.1121C15.2625 36.9829 15.336 36.8808 15.4337 36.8059C15.5323 36.7299 15.6556 36.6919 15.8036 36.6919C15.9456 36.6919 16.065 36.7279 16.1617 36.7999C16.2583 36.871 16.3313 36.9706 16.3806 37.0988C16.43 37.2261 16.4546 37.3745 16.4546 37.5442C16.4546 37.7158 16.4295 37.8672 16.3792 37.9984C16.3289 38.1287 16.2554 38.2307 16.1587 38.3047Z" fill="#A2A9C1"/>
<path d="M18.9182 36.4078V37.7513C18.9182 37.8934 18.8872 38.0103 18.825 38.102C18.7639 38.1938 18.6879 38.2618 18.5971 38.3062C18.5074 38.3506 18.4191 38.3728 18.3323 38.3728C18.1873 38.3728 18.0679 38.3235 17.9742 38.2248C17.8815 38.1262 17.8351 37.994 17.8351 37.8283V36.4078H17.4859V37.852C17.4859 38.0453 17.5175 38.2056 17.5806 38.3328C17.6438 38.4591 17.7306 38.5538 17.841 38.6169C17.9515 38.6791 18.0778 38.7102 18.2198 38.7102C18.3915 38.7102 18.5335 38.6702 18.646 38.5903C18.7584 38.5094 18.8413 38.4113 18.8946 38.2959H18.9182V38.6806H19.2674V36.4078H18.9182Z" fill="#A2A9C1"/>
<path d="M20.2799 38.577C20.4337 38.6776 20.6172 38.7279 20.8303 38.7279C20.998 38.7279 21.145 38.6968 21.2712 38.6347C21.3985 38.5716 21.5006 38.4867 21.5775 38.3802C21.6554 38.2727 21.7043 38.1518 21.724 38.0177H21.3748C21.3531 38.1005 21.3166 38.1716 21.2653 38.2307C21.214 38.2899 21.1514 38.3353 21.0774 38.3669C21.0034 38.3984 20.921 38.4142 20.8303 38.4142C20.6922 38.4142 20.5718 38.3782 20.4693 38.3062C20.3677 38.2342 20.2887 38.1331 20.2325 38.0029C20.1773 37.8727 20.1497 37.7198 20.1497 37.5442C20.1497 37.3726 20.1778 37.2231 20.234 37.0959C20.2912 36.9676 20.3706 36.8685 20.4722 36.7985C20.5748 36.7274 20.6942 36.6919 20.8303 36.6919C20.9842 36.6919 21.1065 36.7324 21.1972 36.8133C21.289 36.8932 21.3482 36.9849 21.3748 37.0885H21.724C21.7043 36.9464 21.6535 36.8221 21.5716 36.7156C21.4897 36.6091 21.3847 36.5262 21.2564 36.467C21.1282 36.4078 20.9842 36.3782 20.8244 36.3782C20.6192 36.3782 20.4397 36.4285 20.2858 36.5292C20.1329 36.6288 20.0135 36.7674 19.9277 36.9449C19.8429 37.1215 19.8005 37.3252 19.8005 37.556C19.8005 37.7829 19.8419 37.9846 19.9248 38.1612C20.0076 38.3378 20.126 38.4764 20.2799 38.577Z" fill="#A2A9C1"/>
<path d="M23.2229 36.7038V36.4078H22.7375V35.8633H22.3884V36.4078H22.0451V36.7038H22.3884V38.1242C22.3884 38.2564 22.4189 38.3659 22.4801 38.4527C22.5422 38.5395 22.6202 38.6041 22.7139 38.6465C22.8086 38.6889 22.9052 38.7102 23.0039 38.7102C23.069 38.7102 23.1227 38.7052 23.1652 38.6954C23.2076 38.6865 23.2406 38.6776 23.2643 38.6687L23.1933 38.355L23.1341 38.3669C23.1094 38.3708 23.0779 38.3728 23.0394 38.3728C22.9881 38.3728 22.9393 38.3649 22.8929 38.3491C22.8475 38.3324 22.8101 38.2998 22.7805 38.2515C22.7519 38.2021 22.7375 38.1282 22.7375 38.0295V36.7038H23.2229Z" fill="#A2A9C1"/>
<path fill-rule="evenodd" clip-rule="evenodd" d="M24.107 38.5814C24.2618 38.6791 24.4418 38.7279 24.647 38.7279C24.8522 38.7279 25.0317 38.6791 25.1856 38.5814C25.3405 38.4838 25.4608 38.3471 25.5466 38.1716C25.6335 37.996 25.6769 37.7908 25.6769 37.556C25.6769 37.3193 25.6335 37.1126 25.5466 36.9361C25.4608 36.7595 25.3405 36.6224 25.1856 36.5247C25.0317 36.4271 24.8522 36.3782 24.647 36.3782C24.4418 36.3782 24.2618 36.4271 24.107 36.5247C23.9531 36.6224 23.8327 36.7595 23.7459 36.9361C23.6601 37.1126 23.6172 37.3193 23.6172 37.556C23.6172 37.7908 23.6601 37.996 23.7459 38.1716C23.8327 38.3471 23.9531 38.4838 24.107 38.5814ZM25.0317 38.2944C24.9311 38.3743 24.8029 38.4142 24.647 38.4142C24.4912 38.4142 24.3629 38.3743 24.2623 38.2944C24.1617 38.2145 24.0872 38.1094 24.0389 37.9792C23.9906 37.849 23.9664 37.7079 23.9664 37.556C23.9664 37.4041 23.9906 37.2626 24.0389 37.1314C24.0872 37.0002 24.1617 36.8941 24.2623 36.8133C24.3629 36.7324 24.4912 36.6919 24.647 36.6919C24.8029 36.6919 24.9311 36.7324 25.0317 36.8133C25.1323 36.8941 25.2068 37.0002 25.2552 37.1314C25.3035 37.2626 25.3277 37.4041 25.3277 37.556C25.3277 37.7079 25.3035 37.849 25.2552 37.9792C25.2068 38.1094 25.1323 38.2145 25.0317 38.2944Z" fill="#A2A9C1"/>
<path d="M28.6779 37.0056L28.9916 36.9168C28.9374 36.7551 28.8456 36.6248 28.7164 36.5262C28.5882 36.4276 28.4116 36.3782 28.1867 36.3782C28.0269 36.3782 27.8839 36.4064 27.7576 36.4626C27.6323 36.5188 27.5332 36.5962 27.4602 36.6949C27.3882 36.7935 27.3522 36.907 27.3522 37.0352C27.3522 37.192 27.4005 37.3227 27.4972 37.4273C27.5948 37.5309 27.7477 37.6073 27.9559 37.6566L28.3347 37.7454C28.4491 37.7721 28.5339 37.8125 28.5892 37.8668C28.6444 37.92 28.672 37.9861 28.672 38.065C28.672 38.1627 28.6237 38.2465 28.527 38.3166C28.4313 38.3856 28.3021 38.4201 28.1393 38.4201C27.9963 38.4201 27.8804 38.3896 27.7916 38.3284C27.7038 38.2672 27.6442 38.1755 27.6126 38.0532L27.2812 38.1361C27.3216 38.3294 27.4178 38.4764 27.5697 38.577C27.7216 38.6776 27.9135 38.7279 28.1453 38.7279C28.3218 38.7279 28.4767 38.6983 28.6099 38.6391C28.743 38.5799 28.8466 38.4991 28.9206 38.3965C28.9956 38.2939 29.033 38.1775 29.033 38.0473C29.033 37.8885 28.9832 37.7587 28.8836 37.6581C28.784 37.5565 28.6326 37.4811 28.4294 37.4317L28.092 37.3489C27.9578 37.3153 27.8592 37.2734 27.7961 37.2231C27.7329 37.1728 27.7014 37.1042 27.7014 37.0174C27.7014 36.9198 27.7472 36.8394 27.839 36.7763C27.9317 36.7121 28.0476 36.6801 28.1867 36.6801C28.2883 36.6801 28.3716 36.6964 28.4368 36.7289C28.5019 36.7615 28.5532 36.8029 28.5906 36.8532C28.6291 36.9025 28.6582 36.9533 28.6779 37.0056Z" fill="#A2A9C1"/>
<path d="M29.9079 36.4078H29.5587V38.6806H29.9079V36.4078Z" fill="#A2A9C1"/>
<path d="M29.5602 35.9595C29.6095 36.0059 29.6682 36.029 29.7362 36.029C29.8043 36.029 29.8625 36.0059 29.9108 35.9595C29.9602 35.9131 29.9848 35.8574 29.9848 35.7923C29.9848 35.7272 29.9602 35.6715 29.9108 35.6251C29.8625 35.5787 29.8043 35.5556 29.7362 35.5556C29.6682 35.5556 29.6095 35.5787 29.5602 35.6251C29.5118 35.6715 29.4877 35.7272 29.4877 35.7923C29.4877 35.8574 29.5118 35.9131 29.5602 35.9595Z" fill="#A2A9C1"/>
<path d="M30.8967 38.6806V37.3134C30.8967 37.1812 30.9218 37.0687 30.9721 36.976C31.0224 36.8833 31.091 36.8128 31.1778 36.7644C31.2656 36.7161 31.3652 36.6919 31.4767 36.6919C31.6384 36.6919 31.7657 36.7422 31.8584 36.8428C31.9511 36.9425 31.9975 37.0816 31.9975 37.2601V38.6806H32.3467V37.2364C32.3467 37.0431 32.3146 36.8833 32.2505 36.757C32.1864 36.6298 32.0966 36.5351 31.9812 36.4729C31.8658 36.4098 31.7312 36.3782 31.5773 36.3782C31.4056 36.3782 31.2656 36.4138 31.1571 36.4848C31.0486 36.5548 30.9677 36.6475 30.9144 36.7629H30.8848V36.4078H30.5475V38.6806H30.8967Z" fill="#A2A9C1"/>
<path d="M35.1687 36.7038V36.4078H34.6597V36.177C34.6597 36.0646 34.6849 35.9792 34.7352 35.921C34.7865 35.8628 34.8699 35.8337 34.9853 35.8337C35.0356 35.8337 35.076 35.8382 35.1066 35.847C35.1382 35.8559 35.1628 35.8633 35.1806 35.8692L35.2812 35.5674C35.2546 35.5556 35.2141 35.5427 35.1599 35.5289C35.1056 35.5151 35.0356 35.5082 34.9498 35.5082C34.8413 35.5082 34.7382 35.5299 34.6405 35.5733C34.5429 35.6167 34.4634 35.6818 34.4023 35.7686C34.3411 35.8554 34.3106 35.9639 34.3106 36.0941V36.4078H33.9436V36.7038H34.3106V38.6806H34.6597V36.7038H35.1687Z" fill="#A2A9C1"/>
<path fill-rule="evenodd" clip-rule="evenodd" d="M35.9478 38.5814C36.1026 38.6791 36.2827 38.7279 36.4878 38.7279C36.693 38.7279 36.8725 38.6791 37.0264 38.5814C37.1813 38.4838 37.3016 38.3471 37.3875 38.1716C37.4743 37.996 37.5177 37.7908 37.5177 37.556C37.5177 37.3193 37.4743 37.1126 37.3875 36.9361C37.3016 36.7595 37.1813 36.6224 37.0264 36.5247C36.8725 36.4271 36.693 36.3782 36.4878 36.3782C36.2827 36.3782 36.1026 36.4271 35.9478 36.5247C35.7939 36.6224 35.6735 36.7595 35.5867 36.9361C35.5009 37.1126 35.458 37.3193 35.458 37.556C35.458 37.7908 35.5009 37.996 35.5867 38.1716C35.6735 38.3471 35.7939 38.4838 35.9478 38.5814ZM36.8725 38.2944C36.7719 38.3743 36.6437 38.4142 36.4878 38.4142C36.332 38.4142 36.2038 38.3743 36.1031 38.2944C36.0025 38.2145 35.928 38.1094 35.8797 37.9792C35.8314 37.849 35.8072 37.7079 35.8072 37.556C35.8072 37.4041 35.8314 37.2626 35.8797 37.1314C35.928 37.0002 36.0025 36.8941 36.1031 36.8133C36.2038 36.7324 36.332 36.6919 36.4878 36.6919C36.6437 36.6919 36.7719 36.7324 36.8725 36.8133C36.9732 36.8941 37.0476 37.0002 37.096 37.1314C37.1443 37.2626 37.1685 37.4041 37.1685 37.556C37.1685 37.7079 37.1443 37.849 37.096 37.9792C37.0476 38.1094 36.9732 38.2145 36.8725 38.2944Z" fill="#A2A9C1"/>
<path d="M39.0391 36.7038V36.4078H38.5538V35.8633H38.2046V36.4078H37.8613V36.7038H38.2046V38.1242C38.2046 38.2564 38.2352 38.3659 38.2963 38.4527C38.3585 38.5395 38.4364 38.6041 38.5301 38.6465C38.6248 38.6889 38.7215 38.7102 38.8201 38.7102C38.8852 38.7102 38.939 38.7052 38.9814 38.6954C39.0238 38.6865 39.0569 38.6776 39.0805 38.6687L39.0095 38.355L38.9503 38.3669C38.9257 38.3708 38.8941 38.3728 38.8556 38.3728C38.8043 38.3728 38.7555 38.3649 38.7092 38.3491C38.6638 38.3324 38.6263 38.2998 38.5967 38.2515C38.5681 38.2021 38.5538 38.1282 38.5538 38.0295V36.7038H39.0391Z" fill="#A2A9C1"/>
<path fill-rule="evenodd" clip-rule="evenodd" d="M39.9232 38.5814C40.0781 38.6791 40.2581 38.7279 40.4633 38.7279C40.6684 38.7279 40.848 38.6791 41.0019 38.5814C41.1567 38.4838 41.2771 38.3471 41.3629 38.1716C41.4497 37.996 41.4931 37.7908 41.4931 37.556C41.4931 37.3193 41.4497 37.1126 41.3629 36.9361C41.2771 36.7595 41.1567 36.6224 41.0019 36.5247C40.848 36.4271 40.6684 36.3782 40.4633 36.3782C40.2581 36.3782 40.0781 36.4271 39.9232 36.5247C39.7693 36.6224 39.649 36.7595 39.5622 36.9361C39.4763 37.1126 39.4334 37.3193 39.4334 37.556C39.4334 37.7908 39.4763 37.996 39.5622 38.1716C39.649 38.3471 39.7693 38.4838 39.9232 38.5814ZM40.848 38.2944C40.7474 38.3743 40.6191 38.4142 40.4633 38.4142C40.3074 38.4142 40.1792 38.3743 40.0786 38.2944C39.9779 38.2145 39.9035 38.1094 39.8551 37.9792C39.8068 37.849 39.7826 37.7079 39.7826 37.556C39.7826 37.4041 39.8068 37.2626 39.8551 37.1314C39.9035 37.0002 39.9779 36.8941 40.0786 36.8133C40.1792 36.7324 40.3074 36.6919 40.4633 36.6919C40.6191 36.6919 40.7474 36.7324 40.848 36.8133C40.9486 36.8941 41.0231 37.0002 41.0714 37.1314C41.1197 37.2626 41.1439 37.4041 41.1439 37.556C41.1439 37.7079 41.1197 37.849 41.0714 37.9792C41.0231 38.1094 40.9486 38.2145 40.848 38.2944Z" fill="#A2A9C1"/>
</svg>
