<svg width="16" height="20" viewBox="0 0 16 20" fill="none" xmlns="http://www.w3.org/2000/svg">
<path d="M3.5625 0C1.6106 0 0 1.47999 0 3.34399V16.656C0 18.52 1.6106 20 3.5625 20H12.4375C14.3894 20 16 18.52 16 16.656C16 16.005 16 8.858 16 7C16 6.99 16.0003 6.97899 16 6.96899C16 3.40599 12.5606 0 9 0C4.7857 0 4.7763 0 3.5625 0ZM3.5625 2C4.553 2 5.6736 2 8 2V4C8 6.552 9.4477 8 12 8H14C14 10.537 14 16.072 14 16.656C14 17.37 13.3259 18 12.4375 18H3.5625C2.6741 18 2 17.37 2 16.656V3.34399C2 2.62999 2.6741 2 3.5625 2ZM10 2.25C11.7717 2.72 13.3221 4.233 13.7812 6H12C10.5523 6 10 5.448 10 4V2.25Z" fill="#1E5DFE"/>
</svg>
