<svg width="311" height="16" viewBox="0 0 311 16" fill="none" xmlns="http://www.w3.org/2000/svg">
<path d="M5.05882 10.9033L0.5 16V0H310.5V16L305.941 10.9033L301.382 16L296.824 10.9033L292.265 16L287.706 10.9033L283.147 16L278.588 10.9033L274.029 16L269.471 10.9033L264.912 16L260.353 10.9033L255.794 16L251.235 10.9033L246.676 16L242.118 10.9033L237.559 16L233 10.9033L228.441 16L223.882 10.9033L219.324 16L214.765 10.9033L210.206 16L205.647 10.9033L201.088 16L196.529 10.9033L191.971 16L187.412 10.9033L182.853 16L178.294 10.9033L173.735 16L169.176 10.9033L164.618 16L160.059 10.9033L155.5 16L150.941 10.9033L146.382 16L141.824 10.9033L137.265 16L132.706 10.9033L128.147 16L123.588 10.9033L119.029 16L114.471 10.9033L109.912 16L105.353 10.9033L100.794 16L96.2353 10.9033L91.6765 16L87.1176 10.9033L82.5588 16L78 10.9033L73.4412 16L68.8824 10.9033L64.3235 16L59.7647 10.9033L55.2059 16L50.6471 10.9033L46.0882 16L41.5294 10.9033L36.9706 16L32.4118 10.9033L27.8529 16L23.2941 10.9033L18.7353 16L14.1765 10.9033L9.61765 16L5.05882 10.9033Z" fill="white"/>
</svg>
