<svg width="666" height="24" viewBox="0 0 666 24" fill="none" xmlns="http://www.w3.org/2000/svg">
<path d="M9.79412 16.355L0 24V0H666V24L656.206 16.355L646.412 24L636.618 16.355L626.824 24L617.029 16.355L607.235 24L597.441 16.355L587.647 24L577.853 16.355L568.059 24L558.265 16.355L548.471 24L538.677 16.355L528.882 24L519.088 16.355L509.294 24L499.5 16.355L489.706 24L479.912 16.355L470.118 24L460.324 16.355L450.529 24L440.735 16.355L430.941 24L421.147 16.355L411.353 24L401.559 16.355L391.765 24L381.971 16.355L372.176 24L362.382 16.355L352.588 24L342.794 16.355L333 24L323.206 16.355L313.412 24L303.618 16.355L293.824 24L284.029 16.355L274.235 24L264.441 16.355L254.647 24L244.853 16.355L235.059 24L225.265 16.355L215.471 24L205.676 16.355L195.882 24L186.088 16.355L176.294 24L166.5 16.355L156.706 24L146.912 16.355L137.118 24L127.324 16.355L117.529 24L107.735 16.355L97.9412 24L88.1471 16.355L78.3529 24L68.5588 16.355L58.7647 24L48.9706 16.355L39.1765 24L29.3824 16.355L19.5882 24L9.79412 16.355Z" fill="white"/>
</svg>
