<svg width="368" height="24" viewBox="0 0 368 24" fill="none" xmlns="http://www.w3.org/2000/svg">
<path d="M5.41176 16.355L0 24V0H368V24L362.588 16.355L357.176 24L351.765 16.355L346.353 24L340.941 16.355L335.529 24L330.118 16.355L324.706 24L319.294 16.355L313.882 24L308.471 16.355L303.059 24L297.647 16.355L292.235 24L286.824 16.355L281.412 24L276 16.355L270.588 24L265.176 16.355L259.765 24L254.353 16.355L248.941 24L243.529 16.355L238.118 24L232.706 16.355L227.294 24L221.882 16.355L216.471 24L211.059 16.355L205.647 24L200.235 16.355L194.824 24L189.412 16.355L184 24L178.588 16.355L173.176 24L167.765 16.355L162.353 24L156.941 16.355L151.529 24L146.118 16.355L140.706 24L135.294 16.355L129.882 24L124.471 16.355L119.059 24L113.647 16.355L108.235 24L102.824 16.355L97.4118 24L92 16.355L86.5882 24L81.1765 16.355L75.7647 24L70.3529 16.355L64.9412 24L59.5294 16.355L54.1176 24L48.7059 16.355L43.2941 24L37.8824 16.355L32.4706 24L27.0588 16.355L21.6471 24L16.2353 16.355L10.8235 24L5.41176 16.355Z" fill="white"/>
</svg>
