<svg width="122" height="26" viewBox="0 0 122 26" fill="none" xmlns="http://www.w3.org/2000/svg">
<path d="M25.7328 21.7215C27.9192 24.0718 30.5682 25.2471 33.6796 25.2471C36.819 25.2471 39.4681 24.0718 41.6266 21.7215C43.8131 19.3401 44.9061 16.4329 44.9061 13C44.9061 9.56713 43.8131 6.67544 41.6266 4.325C39.4681 1.94361 36.819 0.75293 33.6796 0.75293C30.5682 0.75293 27.9192 1.94361 25.7328 4.325C23.5464 6.67544 22.4531 9.56713 22.4531 13C22.4531 16.4329 23.5464 19.3401 25.7328 21.7215Z" fill="#F7CB2F"/>
<path d="M0 2.79413H4.96222H17.3338H22.296L11.2351 25.0901L0 2.79413Z" fill="#2E5CFF"/>
<path d="M50.873 2.79413H55.4509L60.0914 16.1528L60.9066 19.0379H61.1575L62.0354 16.1528L66.8641 2.79413H71.4419L63.2583 25.0901H58.8059L50.873 2.79413Z" fill="#394055"/>
<path fill-rule="evenodd" clip-rule="evenodd" d="M78.8218 25.2471C83.4177 25.2471 87.1435 21.5214 87.1435 16.9254C87.1435 12.3294 83.4177 8.60364 78.8218 8.60364C74.2258 8.60364 70.5 12.3294 70.5 16.9254C70.5 21.5214 74.2258 25.2471 78.8218 25.2471ZM78.8222 21.3218C81.2502 21.3218 83.2186 19.3535 83.2186 16.9254C83.2186 14.4973 81.2502 12.529 78.8222 12.529C76.3941 12.529 74.4258 14.4973 74.4258 16.9254C74.4258 19.3535 76.3941 21.3218 78.8222 21.3218Z" fill="#394055"/>
<path d="M90.2832 25.0901V2.79413H94.3656V25.0901H90.2832Z" fill="#394055"/>
<path d="M104.729 21.6359C102.687 21.6359 101.589 20.9764 101.589 18.9352V12.4976L106.614 12.529V9.07474H101.588V4.99237H97.5059V19.2179C97.5059 22.9548 100.396 25.0902 104.101 25.0902H106.613V21.6359H104.729Z" fill="#394055"/>
<path d="M109.125 21.7614L116.882 13.1571H109.125V9.70276H122V13.1571L114.087 21.6358H122V25.0901H109.125V21.7614Z" fill="#394055"/>
</svg>
