<svg width="240" height="16" viewBox="0 0 240 16" fill="none" xmlns="http://www.w3.org/2000/svg">
<path d="M3.52941 10.9033L0 16V0H240V16L236.471 10.9033L232.941 16L229.412 10.9033L225.882 16L222.353 10.9033L218.824 16L215.294 10.9033L211.765 16L208.235 10.9033L204.706 16L201.176 10.9033L197.647 16L194.118 10.9033L190.588 16L187.059 10.9033L183.529 16L180 10.9033L176.471 16L172.941 10.9033L169.412 16L165.882 10.9033L162.353 16L158.824 10.9033L155.294 16L151.765 10.9033L148.235 16L144.706 10.9033L141.176 16L137.647 10.9033L134.118 16L130.588 10.9033L127.059 16L123.529 10.9033L120 16L116.471 10.9033L112.941 16L109.412 10.9033L105.882 16L102.353 10.9033L98.8235 16L95.2941 10.9033L91.7647 16L88.2353 10.9033L84.7059 16L81.1765 10.9033L77.6471 16L74.1177 10.9033L70.5882 16L67.0588 10.9033L63.5294 16L60 10.9033L56.4706 16L52.9412 10.9033L49.4118 16L45.8824 10.9033L42.3529 16L38.8235 10.9033L35.2941 16L31.7647 10.9033L28.2353 16L24.7059 10.9033L21.1765 16L17.6471 10.9033L14.1176 16L10.5882 10.9033L7.05882 16L3.52941 10.9033Z" fill="white"/>
</svg>
